<svg width="102" height="72" viewBox="0 0 102 72" fill="none" xmlns="http://www.w3.org/2000/svg">
<path d="M2 6C2 9.31371 -0.686292 12 -4 12C-7.31371 12 -10 9.31371 -10 6C-10 2.68629 -7.31371 0 -4 0C-0.686292 0 2 2.68629 2 6Z" fill="#E7CEC0"/>
<path d="M2 26C2 29.3137 -0.686292 32 -4 32C-7.31371 32 -10 29.3137 -10 26C-10 22.6863 -7.31371 20 -4 20C-0.686292 20 2 22.6863 2 26Z" fill="#E7CEC0"/>
<path d="M2 46C2 49.3137 -0.686292 52 -4 52C-7.31371 52 -10 49.3137 -10 46C-10 42.6863 -7.31371 40 -4 40C-0.686292 40 2 42.6863 2 46Z" fill="#E7CEC0"/>
<path d="M2 66C2 69.3137 -0.686292 72 -4 72C-7.31371 72 -10 69.3137 -10 66C-10 62.6863 -7.31371 60 -4 60C-0.686292 60 2 62.6863 2 66Z" fill="#E7CEC0"/>
<path d="M22 6C22 9.31371 19.3137 12 16 12C12.6863 12 10 9.31371 10 6C10 2.68629 12.6863 0 16 0C19.3137 0 22 2.68629 22 6Z" fill="#E7CEC0"/>
<path d="M22 26C22 29.3137 19.3137 32 16 32C12.6863 32 10 29.3137 10 26C10 22.6863 12.6863 20 16 20C19.3137 20 22 22.6863 22 26Z" fill="#E7CEC0"/>
<path d="M22 46C22 49.3137 19.3137 52 16 52C12.6863 52 10 49.3137 10 46C10 42.6863 12.6863 40 16 40C19.3137 40 22 42.6863 22 46Z" fill="#E7CEC0"/>
<path d="M22 66C22 69.3137 19.3137 72 16 72C12.6863 72 10 69.3137 10 66C10 62.6863 12.6863 60 16 60C19.3137 60 22 62.6863 22 66Z" fill="#E7CEC0"/>
<path d="M42 6C42 9.31371 39.3137 12 36 12C32.6863 12 30 9.31371 30 6C30 2.68629 32.6863 0 36 0C39.3137 0 42 2.68629 42 6Z" fill="#E7CEC0"/>
<path d="M42 26C42 29.3137 39.3137 32 36 32C32.6863 32 30 29.3137 30 26C30 22.6863 32.6863 20 36 20C39.3137 20 42 22.6863 42 26Z" fill="#E7CEC0"/>
<path d="M42 46C42 49.3137 39.3137 52 36 52C32.6863 52 30 49.3137 30 46C30 42.6863 32.6863 40 36 40C39.3137 40 42 42.6863 42 46Z" fill="#E7CEC0"/>
<path d="M42 66C42 69.3137 39.3137 72 36 72C32.6863 72 30 69.3137 30 66C30 62.6863 32.6863 60 36 60C39.3137 60 42 62.6863 42 66Z" fill="#E7CEC0"/>
<path d="M62 6C62 9.31371 59.3137 12 56 12C52.6863 12 50 9.31371 50 6C50 2.68629 52.6863 0 56 0C59.3137 0 62 2.68629 62 6Z" fill="#E7CEC0"/>
<path d="M62 26C62 29.3137 59.3137 32 56 32C52.6863 32 50 29.3137 50 26C50 22.6863 52.6863 20 56 20C59.3137 20 62 22.6863 62 26Z" fill="#E7CEC0"/>
<path d="M62 46C62 49.3137 59.3137 52 56 52C52.6863 52 50 49.3137 50 46C50 42.6863 52.6863 40 56 40C59.3137 40 62 42.6863 62 46Z" fill="#E7CEC0"/>
<path d="M62 66C62 69.3137 59.3137 72 56 72C52.6863 72 50 69.3137 50 66C50 62.6863 52.6863 60 56 60C59.3137 60 62 62.6863 62 66Z" fill="#E7CEC0"/>
<path d="M82 6C82 9.31371 79.3137 12 76 12C72.6863 12 70 9.31371 70 6C70 2.68629 72.6863 0 76 0C79.3137 0 82 2.68629 82 6Z" fill="#E7CEC0"/>
<path d="M82 26C82 29.3137 79.3137 32 76 32C72.6863 32 70 29.3137 70 26C70 22.6863 72.6863 20 76 20C79.3137 20 82 22.6863 82 26Z" fill="#E7CEC0"/>
<path d="M82 46C82 49.3137 79.3137 52 76 52C72.6863 52 70 49.3137 70 46C70 42.6863 72.6863 40 76 40C79.3137 40 82 42.6863 82 46Z" fill="#E7CEC0"/>
<path d="M82 66C82 69.3137 79.3137 72 76 72C72.6863 72 70 69.3137 70 66C70 62.6863 72.6863 60 76 60C79.3137 60 82 62.6863 82 66Z" fill="#E7CEC0"/>
<path d="M102 6C102 9.31371 99.3137 12 96 12C92.6863 12 90 9.31371 90 6C90 2.68629 92.6863 0 96 0C99.3137 0 102 2.68629 102 6Z" fill="#E7CEC0"/>
<path d="M102 26C102 29.3137 99.3137 32 96 32C92.6863 32 90 29.3137 90 26C90 22.6863 92.6863 20 96 20C99.3137 20 102 22.6863 102 26Z" fill="#E7CEC0"/>
<path d="M102 46C102 49.3137 99.3137 52 96 52C92.6863 52 90 49.3137 90 46C90 42.6863 92.6863 40 96 40C99.3137 40 102 42.6863 102 46Z" fill="#E7CEC0"/>
<path d="M102 66C102 69.3137 99.3137 72 96 72C92.6863 72 90 69.3137 90 66C90 62.6863 92.6863 60 96 60C99.3137 60 102 62.6863 102 66Z" fill="#E7CEC0"/>
</svg>
